<svg version="1.1" id="Layer_1" xmlns="http://www.w3.org/2000/svg" xmlns:xlink="http://www.w3.org/1999/xlink" x="0px" y="0px"
	 width="100%" viewBox="0 0 450 200" enable-background="new 0 0 450 200" xml:space="preserve">
<path fill="#FFFFFF" opacity="1.000000" stroke="none" shape-rendering="auto"
	d="
M276.731506,116.660233 
	C271.961761,129.488876 267.869415,142.163605 262.769775,154.419189 
	C256.634186,169.164383 242.092438,174.595444 226.365707,169.070831 
	C225.637344,168.814987 224.819427,168.814026 223.663788,168.635834 
	C225.063324,164.396820 226.357727,160.476227 227.233551,157.823486 
	C233.077209,157.270706 238.837280,158.145630 242.924789,155.932037 
	C246.858292,153.801880 249.061920,148.477432 252.025620,144.556473 
	C251.349991,144.442947 250.674347,144.329407 249.998718,144.215866 
	C248.666672,141.818497 247.039825,139.536438 246.049576,137.005325 
	C238.640045,118.066345 231.353027,99.079399 224.054062,80.097298 
	C223.888046,79.665558 224.033188,79.114174 224.033188,78.006943 
	C229.189651,78.006943 234.274368,77.834358 239.327560,78.156563 
	C240.305939,78.218941 241.547226,80.071655 242.013367,81.339012 
	C246.658951,93.969597 251.147156,106.658012 255.753143,119.303375 
	C256.116028,120.299591 257.028931,121.095459 257.686218,121.984451 
	C258.197235,121.131912 258.893066,120.339249 259.191589,119.417854 
	C263.633362,105.709816 268.022552,91.984726 272.449097,78.185944 
	C277.868835,78.185944 283.327057,78.185944 289.536377,78.185944 
	C285.261108,91.152435 281.111908,103.736542 276.731506,116.660233 
z"/>
<path fill="#FFFFFF" opacity="1.000000" stroke="none" shape-rendering="auto"
	d="
M149.365280,126.155396 
	C144.033936,138.212357 134.502670,143.348099 122.289391,143.917679 
	C115.197212,144.248428 108.313828,144.211227 101.478127,140.375656 
	C91.595795,134.830582 87.612793,126.033493 86.212830,115.992752 
	C85.001755,107.306824 85.437080,98.288826 90.284409,90.357513 
	C95.013329,82.619934 102.047501,77.817619 110.972183,76.604904 
	C120.524559,75.306892 130.153854,74.749619 138.676682,80.948181 
	C146.497742,86.636375 150.711472,93.719528 151.312057,103.846512 
	C151.761673,111.428185 152.111511,118.661850 149.365280,126.155396 
M104.996208,121.281960 
	C107.483574,127.742325 111.486511,130.830002 117.428017,131.011017 
	C123.748123,131.203552 129.796677,130.338852 132.592804,123.798523 
	C136.309326,115.105270 135.958313,106.079590 132.945816,97.222267 
	C131.219208,92.145706 127.166725,89.476082 122.013077,89.082603 
	C116.551643,88.665627 111.030289,88.585350 107.364128,94.090736 
	C101.769691,102.491745 101.761116,111.303535 104.996208,121.281960 
z"/>
<path fill="#FFFFFF" opacity="1.000000" stroke="none" shape-rendering="auto"
	d="
M199.563034,130.988541 
	C203.696045,129.464035 207.341827,127.828453 211.101028,126.518311 
	C212.066818,126.181709 213.978745,126.471283 214.445663,127.159088 
	C216.311356,129.907349 217.778900,132.925888 219.509140,136.052948 
	C206.855469,144.012650 193.962143,146.504562 179.897263,142.054504 
	C170.169937,138.976807 164.543777,132.168320 162.354431,122.645531 
	C159.497986,110.221115 160.532990,98.235893 167.934555,87.258408 
	C172.319855,80.754433 178.858536,77.290115 185.978806,76.284157 
	C195.191238,74.982628 204.403702,75.486366 212.219513,82.495705 
	C218.396317,88.035164 220.485840,94.968117 220.896469,102.529579 
	C221.518478,113.984100 221.225739,114.000000 209.832977,114.000000 
	C199.366211,114.000000 188.899429,114.000000 178.496796,114.000000 
	C176.574173,122.737396 185.226227,130.724350 192.626663,130.987808 
	C194.787827,131.064758 196.954071,130.998932 199.563034,130.988541 
M202.929810,101.374901 
	C203.117355,92.900673 202.064407,90.871437 197.203857,88.959656 
	C189.681717,86.000999 179.734589,89.736496 178.763550,101.955574 
	C186.572403,101.955574 194.378784,101.955574 202.929810,101.374901 
z"/>
<path fill="#FFFFFF" opacity="1.000000" stroke="none" shape-rendering="auto"
	d="
M405.258179,54.684212 
	C413.758545,66.292465 417.477966,79.099052 418.004211,92.967850 
	C418.528290,106.779068 417.271698,120.256935 411.024109,132.897217 
	C405.789307,143.488464 397.955414,151.975281 389.504730,160.000031 
	C387.364258,162.032639 385.407654,161.955933 383.399750,159.896774 
	C382.470551,158.943878 381.658356,157.755630 380.537994,157.133408 
	C377.321045,155.346786 377.539642,153.889420 380.047729,151.334595 
	C388.297150,142.931366 394.759521,133.113388 397.843262,121.796677 
	C404.420807,97.658516 402.213623,74.558723 387.139587,53.689419 
	C384.286438,49.739365 381.083466,46.042007 377.672058,41.764275 
	C380.687592,39.174992 383.726135,36.565922 387.703735,33.150528 
	C393.539185,40.300541 399.286713,47.342838 405.258179,54.684212 
z"/>
<path fill="#FFFFFF" opacity="1.000000" stroke="none" shape-rendering="auto"
	d="
M332.762512,49.733185 
	C324.889496,59.020180 319.415375,69.364525 317.255768,80.823814 
	C314.671936,94.534149 314.527496,108.471863 318.968384,122.067780 
	C322.433258,132.675674 328.004883,142.000137 335.613861,150.143967 
	C336.826630,151.442001 337.839966,152.926361 339.191223,154.635376 
	C336.128937,157.209717 333.154297,159.710358 330.242462,162.158218 
	C291.804138,134.623535 284.218323,71.022942 329.973297,33.826927 
	C332.932770,36.454899 335.938782,39.124203 339.064240,41.899578 
	C337.054382,44.415802 335.035370,46.943459 332.762512,49.733185 
z"/>
<path fill="#FFFFFF" opacity="1.000000" stroke="none" shape-rendering="auto"
	d="
M37.745445,161.632202 
	C38.245358,160.364197 38.553776,159.452408 38.795937,158.523376 
	C38.993675,157.764755 39.112270,156.985504 39.308720,156.001144 
	C41.513386,156.355484 43.550755,156.673798 45.584896,157.011551 
	C52.388222,158.141144 55.983124,155.077957 55.991154,148.010223 
	C56.015564,126.515808 56.000000,105.021355 56.000000,83.526909 
	C56.000000,81.872688 56.000000,80.218475 56.000000,78.036812 
	C61.534679,77.259102 66.940872,76.499451 72.646324,75.697754 
	C72.786644,77.161163 72.985367,78.273178 72.986298,79.385353 
	C73.004631,101.213028 73.255127,123.045311 72.862251,144.865921 
	C72.723877,152.551102 71.999481,160.458771 65.350670,166.233658 
	C59.568718,171.255615 42.706207,173.105530 37.311134,168.422729 
	C36.288898,167.535446 37.399055,164.191437 37.745445,161.632202 
z"/>
<path fill="#FFFFFF" opacity="1.000000" stroke="none" shape-rendering="auto"
	d="
M68.740593,46.933556 
	C73.883446,49.656696 76.283157,55.007759 74.790565,59.605171 
	C73.186752,64.545212 67.367638,67.947762 62.172440,66.983231 
	C57.126583,66.046432 52.973236,61.068363 53.002132,55.992008 
	C53.042164,48.959850 60.571049,44.473545 68.740593,46.933556 
z"/>
</svg>